<?xml version="1.0" standalone="no"?>
<svg xmlns:xlink="http://www.w3.org/1999/xlink" id="wave" style="transform:rotate(180deg); transition: 0.3s" viewBox="0 0 1440 490" version="1.1" xmlns="http://www.w3.org/2000/svg"><defs><linearGradient id="sw-gradient-0" x1="0" x2="0" y1="1" y2="0"><stop stop-color="rgba(243, 106, 62, 1)" offset="0%"/><stop stop-color="rgba(255, 179, 11, 1)" offset="100%"/></linearGradient></defs><path style="transform:translate(0, 0px); opacity:1" fill="url(#sw-gradient-0)" d="M0,0L48,8.2C96,16,192,33,288,65.3C384,98,480,147,576,196C672,245,768,294,864,277.7C960,261,1056,180,1152,138.8C1248,98,1344,98,1440,98C1536,98,1632,98,1728,130.7C1824,163,1920,229,2016,236.8C2112,245,2208,196,2304,220.5C2400,245,2496,343,2592,318.5C2688,294,2784,147,2880,73.5C2976,0,3072,0,3168,32.7C3264,65,3360,131,3456,155.2C3552,180,3648,163,3744,204.2C3840,245,3936,343,4032,392C4128,441,4224,441,4320,400.2C4416,359,4512,278,4608,253.2C4704,229,4800,261,4896,228.7C4992,196,5088,98,5184,122.5C5280,147,5376,294,5472,302.2C5568,310,5664,180,5760,155.2C5856,131,5952,212,6048,277.7C6144,343,6240,392,6336,383.8C6432,376,6528,310,6624,236.8C6720,163,6816,82,6864,40.8L6912,0L6912,490L6864,490C6816,490,6720,490,6624,490C6528,490,6432,490,6336,490C6240,490,6144,490,6048,490C5952,490,5856,490,5760,490C5664,490,5568,490,5472,490C5376,490,5280,490,5184,490C5088,490,4992,490,4896,490C4800,490,4704,490,4608,490C4512,490,4416,490,4320,490C4224,490,4128,490,4032,490C3936,490,3840,490,3744,490C3648,490,3552,490,3456,490C3360,490,3264,490,3168,490C3072,490,2976,490,2880,490C2784,490,2688,490,2592,490C2496,490,2400,490,2304,490C2208,490,2112,490,2016,490C1920,490,1824,490,1728,490C1632,490,1536,490,1440,490C1344,490,1248,490,1152,490C1056,490,960,490,864,490C768,490,672,490,576,490C480,490,384,490,288,490C192,490,96,490,48,490L0,490Z"/></svg>